<svg width="24" height="25" viewBox="0 0 24 25" fill="none" xmlns="http://www.w3.org/2000/svg">
<path d="M11.957 23.5601C17.9512 23.5601 22.9141 18.5972 22.9141 12.6031C22.9141 6.61963 17.9404 1.646 11.9463 1.646C5.96289 1.646 1 6.61963 1 12.6031C1 18.5972 5.97363 23.5601 11.957 23.5601Z" fill="#FD8A65"/>
<path d="M6.89746 18.232C6.44629 18.232 6.24219 17.9419 6.24219 17.5337C6.24219 16.3306 8.06836 13.1832 11.957 13.1832C15.8457 13.1832 17.6719 16.3306 17.6719 17.5337C17.6719 17.9419 17.4678 18.232 17.0166 18.232H6.89746ZM11.957 12.2701C10.3887 12.2593 9.11035 10.938 9.11035 9.15479C9.11035 7.50049 10.3887 6.12549 11.957 6.12549C13.5254 6.12549 14.8037 7.50049 14.8037 9.15479C14.8037 10.938 13.5254 12.2808 11.957 12.2701Z" fill="white" fill-opacity="0.85"/>
</svg>
